<?xml version="1.0" encoding="UTF-8"?>
<svg xmlns="http://www.w3.org/2000/svg" width="1500" height="1340" viewBox="0 0 1500 1340">
<rect width="100%" height="100%" fill="#fafafa"/>
<text x="750.0" y="36.0" text-anchor="middle" font-size="15" font-weight="600" font-family="Malgun Gothic, sans-serif">그림3: 디바이스별 학습 시간 비교 (log)</text>
<rect x="122.0" y="500.0" width="62.3" height="1.0" fill="#4C72B0" fill-opacity="0.85"/>
<rect x="215.5" y="453.0" width="62.3" height="47.0" fill="#DD8452" fill-opacity="0.85"/>
<rect x="342.0" y="115.7" width="62.3" height="384.3" fill="#4C72B0" fill-opacity="0.85"/>
<rect x="435.5" y="307.7" width="62.3" height="192.3" fill="#DD8452" fill-opacity="0.85"/>
<rect x="562.0" y="87.2" width="62.3" height="412.8" fill="#4C72B0" fill-opacity="0.85"/>
<rect x="655.5" y="281.4" width="62.3" height="218.6" fill="#DD8452" fill-opacity="0.85"/>
<rect x="782.0" y="121.7" width="62.3" height="378.3" fill="#4C72B0" fill-opacity="0.85"/>
<rect x="875.5" y="297.7" width="62.3" height="202.3" fill="#DD8452" fill-opacity="0.85"/>
<rect x="1002.0" y="119.9" width="62.3" height="380.1" fill="#4C72B0" fill-opacity="0.85"/>
<rect x="1095.5" y="309.8" width="62.3" height="190.2" fill="#DD8452" fill-opacity="0.85"/>
<rect x="1222.0" y="249.7" width="62.3" height="250.3" fill="#4C72B0" fill-opacity="0.85"/>
<rect x="1315.5" y="343.9" width="62.3" height="156.1" fill="#DD8452" fill-opacity="0.85"/>
<line x1="100.0" y1="500.0" x2="1420.0" y2="500.0" stroke="#333" stroke-width="1"/>
<text x="210.0" y="522.0" text-anchor="middle" font-size="10" font-family="Malgun Gothic, sans-serif">ANN</text>
<text x="430.0" y="522.0" text-anchor="middle" font-size="10" font-family="Malgun Gothic, sans-serif">CNN</text>
<text x="650.0" y="522.0" text-anchor="middle" font-size="10" font-family="Malgun Gothic, sans-serif">ResNet</text>
<text x="870.0" y="522.0" text-anchor="middle" font-size="10" font-family="Malgun Gothic, sans-serif">MobileNet</text>
<text x="1090.0" y="522.0" text-anchor="middle" font-size="10" font-family="Malgun Gothic, sans-serif">Transformer</text>
<text x="1310.0" y="522.0" text-anchor="middle" font-size="10" font-family="Malgun Gothic, sans-serif">GAN</text>
<rect x="1428.0" y="100.0" width="12" height="12" fill="#4C72B0"/>
<text x="1446.0" y="111.0" font-size="10" font-family="Malgun Gothic, sans-serif">CPU</text>
<rect x="1428.0" y="118.0" width="12" height="12" fill="#DD8452"/>
<text x="1446.0" y="129.0" font-size="10" font-family="Malgun Gothic, sans-serif">GPU(CUDA)</text>
<text x="750.0" y="656.0" text-anchor="middle" font-size="15" font-weight="600" font-family="Malgun Gothic, sans-serif">그림3: 디바이스별 추론 시간 비교 (log)</text>
<rect x="122.0" y="1067.9" width="62.3" height="52.1" fill="#4C72B0" fill-opacity="0.85"/>
<rect x="215.5" y="1120.0" width="62.3" height="1.0" fill="#DD8452" fill-opacity="0.85"/>
<rect x="342.0" y="719.4" width="62.3" height="400.6" fill="#4C72B0" fill-opacity="0.85"/>
<rect x="435.5" y="867.4" width="62.3" height="252.6" fill="#DD8452" fill-opacity="0.85"/>
<rect x="562.0" y="705.5" width="62.3" height="414.5" fill="#4C72B0" fill-opacity="0.85"/>
<rect x="655.5" y="851.1" width="62.3" height="268.9" fill="#DD8452" fill-opacity="0.85"/>
<rect x="782.0" y="718.5" width="62.3" height="401.5" fill="#4C72B0" fill-opacity="0.85"/>
<rect x="875.5" y="861.1" width="62.3" height="258.9" fill="#DD8452" fill-opacity="0.85"/>
<rect x="1002.0" y="709.0" width="62.3" height="411.0" fill="#4C72B0" fill-opacity="0.85"/>
<rect x="1095.5" y="862.3" width="62.3" height="257.7" fill="#DD8452" fill-opacity="0.85"/>
<rect x="1222.0" y="820.8" width="62.3" height="299.2" fill="#4C72B0" fill-opacity="0.85"/>
<rect x="1315.5" y="882.4" width="62.3" height="237.6" fill="#DD8452" fill-opacity="0.85"/>
<line x1="100.0" y1="1120.0" x2="1420.0" y2="1120.0" stroke="#333" stroke-width="1"/>
<text x="210.0" y="1142.0" text-anchor="middle" font-size="10" font-family="Malgun Gothic, sans-serif">ANN</text>
<text x="430.0" y="1142.0" text-anchor="middle" font-size="10" font-family="Malgun Gothic, sans-serif">CNN</text>
<text x="650.0" y="1142.0" text-anchor="middle" font-size="10" font-family="Malgun Gothic, sans-serif">ResNet</text>
<text x="870.0" y="1142.0" text-anchor="middle" font-size="10" font-family="Malgun Gothic, sans-serif">MobileNet</text>
<text x="1090.0" y="1142.0" text-anchor="middle" font-size="10" font-family="Malgun Gothic, sans-serif">Transformer</text>
<text x="1310.0" y="1142.0" text-anchor="middle" font-size="10" font-family="Malgun Gothic, sans-serif">GAN</text>
<rect x="1428.0" y="720.0" width="12" height="12" fill="#4C72B0"/>
<text x="1446.0" y="731.0" font-size="10" font-family="Malgun Gothic, sans-serif">CPU</text>
<rect x="1428.0" y="738.0" width="12" height="12" fill="#DD8452"/>
<text x="1446.0" y="749.0" font-size="10" font-family="Malgun Gothic, sans-serif">GPU(CUDA)</text>
<text x="750.0" y="1270" text-anchor="middle" font-size="10" fill="#555" font-family="Malgun Gothic, sans-serif">[실험 환경]</text>
<text x="750.0" y="1284.0" text-anchor="middle" font-size="9" fill="#333" font-family="Malgun Gothic, sans-serif">GPU: GPU(CUDA) — 벤치마크 JSON 기준 (모델명은 torch 필요) · VRAM 8.0GB · SM 0</text>
<text x="750.0" y="1297.0" text-anchor="middle" font-size="9" fill="#333" font-family="Malgun Gothic, sans-serif">CPU 16코어 · 4.2GHz · RAM 31.1GB · Windows 11</text>
</svg>
