<?xml version="1.0" encoding="UTF-8"?>
<svg xmlns="http://www.w3.org/2000/svg" width="1000" height="520" viewBox="0 0 1000 520">
<rect width="100%" height="100%" fill="#fafafa"/>
<text x="500.0" y="38" text-anchor="middle" font-size="15" font-weight="600" font-family="Malgun Gothic, sans-serif">그림4: GPU 대비 CPU Speedup (CPU시간/GPU시간)</text>
<rect x="119.5" y="418.2" width="21.0" height="11.8" fill="#4C72B0" fill-opacity="0.85"/>
<rect x="144.5" y="375.8" width="21.0" height="54.2" fill="#DD8452" fill-opacity="0.85"/>
<text x="140.5" y="448.0" text-anchor="middle" font-size="9" font-family="Malgun Gothic, sans-serif">ANN</text>
<rect x="249.5" y="152.0" width="21.0" height="278.0" fill="#4C72B0" fill-opacity="0.85"/>
<rect x="274.5" y="144.4" width="21.0" height="285.6" fill="#DD8452" fill-opacity="0.85"/>
<text x="270.5" y="448.0" text-anchor="middle" font-size="9" font-family="Malgun Gothic, sans-serif">CNN</text>
<rect x="379.5" y="143.7" width="21.0" height="286.3" fill="#4C72B0" fill-opacity="0.85"/>
<rect x="404.5" y="156.1" width="21.0" height="273.9" fill="#DD8452" fill-opacity="0.85"/>
<text x="400.5" y="448.0" text-anchor="middle" font-size="9" font-family="Malgun Gothic, sans-serif">ResNet</text>
<rect x="509.5" y="205.0" width="21.0" height="225.0" fill="#4C72B0" fill-opacity="0.85"/>
<rect x="534.5" y="169.7" width="21.0" height="260.3" fill="#DD8452" fill-opacity="0.85"/>
<text x="530.5" y="448.0" text-anchor="middle" font-size="9" font-family="Malgun Gothic, sans-serif">MobileNet</text>
<rect x="639.5" y="159.6" width="21.0" height="270.4" fill="#4C72B0" fill-opacity="0.85"/>
<rect x="664.5" y="117.0" width="21.0" height="313.0" fill="#DD8452" fill-opacity="0.85"/>
<text x="660.5" y="448.0" text-anchor="middle" font-size="9" font-family="Malgun Gothic, sans-serif">Transformer</text>
<rect x="769.5" y="353.6" width="21.0" height="76.4" fill="#4C72B0" fill-opacity="0.85"/>
<rect x="794.5" y="366.1" width="21.0" height="63.9" fill="#DD8452" fill-opacity="0.85"/>
<text x="790.5" y="448.0" text-anchor="middle" font-size="9" font-family="Malgun Gothic, sans-serif">GAN</text>
<line x1="100.0" y1="430.0" x2="880.0" y2="430.0" stroke="#333"/>
<text x="120.0" y="480.0" font-size="10" font-family="Malgun Gothic, sans-serif">■ 학습 Speedup  ■ 추론 Speedup</text>
<text x="500.0" y="472" text-anchor="middle" font-size="10" fill="#555" font-family="Malgun Gothic, sans-serif">[실험 환경]</text>
<text x="500.0" y="486.0" text-anchor="middle" font-size="9" fill="#333" font-family="Malgun Gothic, sans-serif">GPU: GPU(CUDA) — 벤치마크 JSON 기준 (모델명은 torch 필요) · VRAM 8.0GB · SM 0</text>
<text x="500.0" y="499.0" text-anchor="middle" font-size="9" fill="#333" font-family="Malgun Gothic, sans-serif">CPU 16코어 · 4.2GHz · RAM 31.1GB · Windows 11</text>
</svg>
